<svg width="65" height="65" viewBox="0 0 65 65" fill="none" xmlns="http://www.w3.org/2000/svg">
<g clip-path="url(#clip0_246_640)">
<path d="M8.33337 45.834H0.833435V61.6668L9.16679 60.8323L8.33337 45.834Z" fill="#FF6D6D"/>
<path d="M55.8333 5.83252L56.6667 21.6662H64.1666V5.83252H55.8333Z" fill="#F3B256"/>
<path d="M19.167 0.83252L5.00055 15.8326L29.1663 39.1658L41.6668 26.6665L35.8328 21.6659L28.3329 19.9987L24.1666 15.8326L25.0001 12.4991L29.9997 11.6664L19.167 0.83252Z" fill="#B8E2E4"/>
<path d="M21.9308 50.0018C21.9307 50.1681 21.8975 50.3329 21.8328 50.4866C21.7541 50.6783 21.6286 50.8478 21.4676 50.9802C21.3065 51.1126 21.1148 51.2037 20.9095 51.2455C20.6629 51.2967 20.4064 51.2716 20.1749 51.1735C19.9813 51.093 19.8108 50.9666 19.6787 50.8053C19.5467 50.6441 19.4571 50.4531 19.4181 50.2495C19.3502 49.9213 19.4169 49.5799 19.6037 49.3002C19.7904 49.0205 20.082 48.8252 20.4144 48.7571C20.6602 48.7067 20.9157 48.7321 21.1463 48.83C21.3805 48.9242 21.5795 49.0874 21.7162 49.2973C21.8563 49.5062 21.9309 49.7512 21.9308 50.0018ZM55.1591 57.0569C55.1257 57.0722 55.0915 57.086 55.0567 57.0982L35.5069 64.0988C34.188 64.6966 32.7529 65.0039 31.3015 64.9992C29.4663 64.9992 27.9785 64.5293 27.2163 64.2297L27.1611 64.206C23.1943 62.422 20.9905 61.1519 19.5338 60.3113C17.639 59.2186 16.9605 58.8268 14.8965 58.6476V59.013C14.8965 59.714 14.3285 60.2823 13.6268 60.2823H10.0883V61.3785C10.0883 62.0803 9.51935 62.6478 8.8186 62.6478H1.2697C1.10182 62.6467 0.935805 62.6131 0.781125 62.5487C0.626446 62.4844 0.486138 62.3906 0.368221 62.2727C0.250304 62.1548 0.157088 62.0152 0.093902 61.8617C0.0307157 61.7083 -0.00120297 61.5441 -2.98334e-05 61.3785V45.3701C-2.98334e-05 44.67 0.568052 44.1017 1.2697 44.1017H13.0204C14.6989 41.6211 17.6328 39.3453 20.9496 39.3453C25.6954 39.3453 28.2304 42.0217 29.0389 43.0687L38.7622 46.3679L38.7952 46.3802C40.5983 47.0495 41.8742 48.3671 42.3853 49.9165L51.2298 47.4703C54.4735 46.3626 57.2133 47.3728 58.3824 50.1072L58.3976 50.1449C59.8115 53.7735 57.0281 56.197 55.1591 57.0569ZM7.54887 46.6402H2.53853V60.1084H7.54709L7.54887 46.6402ZM12.3571 46.6402H10.0865V57.7429H12.3571V46.6402ZM56.0398 51.0865C55.2348 49.2332 53.4273 49.4027 52.0507 49.8726L42.5189 52.5139C42.3724 53.2077 42.0772 53.8625 41.653 54.4344C41.2289 55.0064 40.6855 55.4821 40.0596 55.8298C39.4866 56.1511 38.8541 56.356 38.1996 56.4321C37.545 56.5083 36.8816 56.4543 36.2486 56.2734L36.213 56.2628L24.8184 52.6509C24.4959 52.5459 24.2284 52.3198 24.0737 52.0216C23.9191 51.7233 23.8897 51.377 23.9921 51.0576C24.0408 50.8995 24.1209 50.7525 24.2276 50.6251C24.3343 50.4978 24.4657 50.3926 24.6139 50.3157C24.7622 50.2388 24.9245 50.1918 25.0913 50.1772C25.2582 50.1627 25.4263 50.181 25.5859 50.231L36.96 53.8359C37.5904 54.0098 38.2511 53.9316 38.8237 53.6119C39.1091 53.4532 39.36 53.2403 39.5617 52.9855C39.7634 52.7307 39.912 52.4391 39.999 52.1274C40.3908 50.7519 39.5387 49.372 37.927 48.7668L27.8378 45.3411C27.5567 45.2457 27.3185 45.0561 27.1646 44.8053C27.0925 44.6911 25.2645 41.8847 20.9496 41.8847C18.4333 41.8847 16.1004 43.9032 14.8965 45.876V56.1021C17.7236 56.3357 18.7253 56.9137 20.8026 58.1118C22.2967 58.9726 24.342 60.1523 28.1735 61.8765C29.1876 62.2718 31.7743 63.0202 34.4954 61.7685L34.547 61.7465C34.5639 61.7404 34.5871 61.7307 34.604 61.7255L54.145 54.7274C54.7077 54.4595 56.8723 53.2623 56.0389 51.0865H56.0398ZM45.6068 16.9449C45.6071 17.2787 45.4739 17.5991 45.2362 17.8368C44.9985 18.0744 44.6755 18.21 44.3371 18.2141C43.9999 18.212 43.6773 18.0785 43.4396 17.8426C43.3208 17.7246 43.2275 17.5842 43.1653 17.4297C43.0927 17.2572 43.0594 17.0711 43.0681 16.8845C43.0767 16.6979 43.1269 16.5155 43.2152 16.3502C43.3034 16.185 43.4276 16.041 43.5787 15.9285C43.7298 15.816 43.9043 15.7377 44.0896 15.6993C44.2532 15.6666 44.4219 15.6666 44.5855 15.6994C44.7492 15.7321 44.9045 15.7969 45.0423 15.8899C45.1825 15.9814 45.3017 16.1008 45.3922 16.2404C45.5326 16.4492 45.6072 16.6943 45.6068 16.9449ZM65 5.5681V21.5765C65 22.2775 64.4319 22.8458 63.7302 22.8458H51.9795C50.3011 25.3255 47.3672 27.6013 44.0504 27.6013C43.6889 27.6013 43.3407 27.5855 43.0059 27.5574L30.0985 40.4643C29.5954 40.9676 28.6899 40.8508 28.3035 40.4643L4.14661 16.3054C3.90558 16.067 3.77022 15.744 3.77022 15.4073C3.77022 15.0705 3.90558 14.7475 4.14661 14.5091L18.2819 0.370733C18.3989 0.252892 18.5387 0.159275 18.6929 0.0953644C18.847 0.0314541 19.0126 -0.00146484 19.1799 -0.00146484C19.3471 -0.00146484 19.5127 0.0314541 19.6669 0.0953644C19.8211 0.159275 19.9608 0.252892 20.0778 0.370733L24.3839 4.67742L29.4922 2.84776C33.1072 1.20958 36.4908 2.20918 37.7819 2.71688L37.838 2.7406C41.8048 4.52458 44.0085 5.79472 45.4652 6.63533C47.36 7.72803 48.0385 8.11979 50.1025 8.29986V7.93445C50.1025 7.23263 50.6706 6.66431 51.3722 6.66431H54.9116V5.56898C54.9116 4.86803 55.4797 4.29972 56.1813 4.29972H63.7294C64.431 4.29972 64.9991 4.86803 64.9991 5.56898L65 5.5681ZM16.2874 5.95722C17.1475 6.48952 18.1412 6.77411 19.1812 6.77411C20.2043 6.77659 21.2073 6.49338 22.0741 5.95722L19.1803 3.06384L16.2874 5.95722ZM10.5487 15.4077C10.5487 14.3677 10.2637 13.3734 9.73216 12.5134L6.83833 15.4068L9.73216 18.3002C10.2646 17.4394 10.5487 16.4451 10.5487 15.4068V15.4077ZM32.0939 34.8787C31.2263 34.3442 30.2239 34.0608 29.201 34.0608C28.1781 34.0608 27.1757 34.3442 26.3081 34.8787L29.2019 37.7703L32.0939 34.8787ZM36.822 30.1495C36.16 29.2264 35.6988 28.1782 35.4674 27.0708C35.236 25.9633 35.2395 24.8206 35.4775 23.7145L31.1911 22.259C30.8676 23.496 30.2178 24.6265 29.3078 25.5354C28.6404 26.2061 27.844 26.7388 26.9654 27.1023C26.0867 27.4658 25.1434 27.6527 24.1907 27.6523C23.2379 27.6527 22.2946 27.4658 21.4159 27.1023C20.5373 26.7388 19.7409 26.2061 19.0735 25.5354C16.2526 22.7132 16.2526 18.1219 19.0735 15.2997C20.1037 14.2674 21.429 13.5702 22.872 13.3013C23.3166 12.3802 24.039 11.6172 24.9404 11.1168C25.4689 10.8208 26.0481 10.6231 26.6491 10.5336L23.903 7.78688C22.5359 8.78236 20.8804 9.3176 19.1812 9.3135C17.4817 9.31785 15.8258 8.7826 14.4585 7.78688L11.5611 10.6838C12.5602 12.0609 13.0948 13.7133 13.089 15.4068C13.0953 17.1 12.561 18.7522 11.562 20.129L24.48 33.0482C25.8493 32.0569 27.5035 31.5223 29.2019 31.5223C30.9003 31.5223 32.5545 32.0569 33.9237 33.0482L36.822 30.1495ZM22.4009 16.0744C21.8266 16.311 21.3059 16.6583 20.8694 17.0959C19.0378 18.9274 19.0378 21.9077 20.8694 23.74C21.3029 24.175 21.8199 24.5206 22.3902 24.7564C22.9605 24.9923 23.5727 25.1138 24.1911 25.1138C24.8095 25.1138 25.4217 24.9923 25.992 24.7564C26.5623 24.5206 27.0793 24.175 27.5128 23.74C28.1465 23.1071 28.585 22.3096 28.7772 21.4404L26.2386 20.5787L26.2048 20.5664C24.0393 19.7627 22.6342 18.0235 22.4009 16.0744ZM40.0791 26.8916C39.2828 26.585 38.5304 26.1776 37.8407 25.6795C37.8852 26.6105 38.1612 27.5214 38.6509 28.3199L40.0791 26.8916ZM50.1034 10.8436C47.2763 10.6109 46.2746 10.0329 44.1973 8.83479C42.7032 7.9731 40.6579 6.79344 36.8265 5.07006C35.8114 4.67479 33.2257 3.92641 30.5046 5.17722C30.4867 5.18513 30.4698 5.19303 30.4529 5.19918C30.4486 5.2012 30.4441 5.20296 30.4396 5.20445L30.395 5.22202L26.3704 6.66256L31.0539 11.347L31.0557 11.3496L31.1359 11.4286L40.1807 14.2948C40.5035 14.3996 40.7714 14.6258 40.9263 14.9243C41.0811 15.2227 41.1104 15.5694 41.0078 15.889C40.959 16.0471 40.8789 16.194 40.7721 16.3213C40.6654 16.4485 40.5341 16.5537 40.3858 16.6305C40.2376 16.7074 40.0754 16.7545 39.9086 16.7691C39.7417 16.7837 39.5736 16.7655 39.414 16.7156L28.0399 13.1107C27.7298 13.024 27.4053 12.9991 27.0853 13.0374C26.7654 13.0757 26.4563 13.1765 26.1763 13.3338C25.8909 13.4925 25.6401 13.7052 25.4384 13.9598C25.2367 14.2144 25.088 14.5059 25.0009 14.8174V14.8201C24.61 16.1956 25.4613 17.5747 27.072 18.1799L37.1657 21.6055C37.4756 21.7109 37.7178 21.9235 37.8656 22.1879C37.8825 22.2116 37.992 22.3565 38.0187 22.3943C38.504 23.0109 39.9794 24.5701 42.7201 24.968L42.7254 24.9688C43.1386 25.0286 43.5802 25.062 44.0504 25.062C46.5658 25.062 48.8996 23.0426 50.1034 21.0697V10.8436ZM54.9125 9.20371H52.642V20.3064H54.9125V9.20371ZM62.4605 6.83823H57.452V20.3064H62.4605V6.83823Z" fill="black"/>
</g>
<defs>
<clipPath id="clip0_246_640">
<rect width="65" height="65" fill="white"/>
</clipPath>
</defs>
</svg>
